<svg width="72" height="72" viewBox="0 0 72 72" fill="none" xmlns="http://www.w3.org/2000/svg">
<path d="M44.8334 59.5C44.8334 60.4973 44.012 61.5347 42.3761 62.3527C40.7702 63.1556 38.5166 63.6667 36.0001 63.6667C33.4835 63.6667 31.23 63.1556 29.624 62.3527C27.9882 61.5347 27.1667 60.4973 27.1667 59.5C27.1667 58.5028 27.9882 57.4653 29.624 56.6474C31.23 55.8445 33.4835 55.3334 36.0001 55.3334C38.5166 55.3334 40.7702 55.8445 42.3761 56.6474C44.012 57.4653 44.8334 58.5028 44.8334 59.5Z" fill="#BABABA" stroke="#ADADAD"/>
<mask id="path-2-inside-1_171_14147" fill="white">
<path fill-rule="evenodd" clip-rule="evenodd" d="M47.1861 45.776C53.0827 42.0576 57 35.4862 57 28C57 16.402 47.598 7 36 7C24.402 7 15 16.402 15 28C15 35.4862 18.9173 42.0576 24.8139 45.776C25.2612 46.1252 25.7242 46.4729 26.1946 46.8263L26.195 46.8266C29.6599 49.4292 33.5289 52.3353 34.5 58.3335H34.5063C34.5361 58.9768 35.1945 59.491 36.0023 59.491C36.8101 59.491 37.4685 58.9768 37.4983 58.3335H37.5C38.4711 52.3353 42.3401 49.4292 45.805 46.8266L45.8052 46.8264C46.2757 46.473 46.7388 46.1252 47.1861 45.776Z"/>
</mask>
<path fill-rule="evenodd" clip-rule="evenodd" d="M47.1861 45.776C53.0827 42.0576 57 35.4862 57 28C57 16.402 47.598 7 36 7C24.402 7 15 16.402 15 28C15 35.4862 18.9173 42.0576 24.8139 45.776C25.2612 46.1252 25.7242 46.4729 26.1946 46.8263L26.195 46.8266C29.6599 49.4292 33.5289 52.3353 34.5 58.3335H34.5063C34.5361 58.9768 35.1945 59.491 36.0023 59.491C36.8101 59.491 37.4685 58.9768 37.4983 58.3335H37.5C38.4711 52.3353 42.3401 49.4292 45.805 46.8266L45.8052 46.8264C46.2757 46.473 46.7388 46.1252 47.1861 45.776Z" fill="#6776FF"/>
<path d="M47.1861 45.776L46.6527 44.9301L46.6103 44.9569L46.5708 44.9877L47.1861 45.776ZM24.8139 45.776L25.4292 44.9877L25.3897 44.9569L25.3473 44.9301L24.8139 45.776ZM26.1946 46.8263L26.8016 46.0315L26.7952 46.0268L26.1946 46.8263ZM26.195 46.8266L25.588 47.6214L25.5944 47.6261L26.195 46.8266ZM34.5 58.3335L33.5129 58.4933L33.6489 59.3335H34.5V58.3335ZM34.5063 58.3335L35.5052 58.2872L35.461 57.3335H34.5063V58.3335ZM37.4983 58.3335V57.3335H36.5436L36.4994 58.2872L37.4983 58.3335ZM37.5 58.3335V59.3335H38.3511L38.4871 58.4933L37.5 58.3335ZM45.805 46.8266L46.4056 47.6261L46.4094 47.6233L45.805 46.8266ZM45.8052 46.8264L45.2046 46.0269L45.2008 46.0297L45.8052 46.8264ZM56 28C56 35.1287 52.2711 41.3871 46.6527 44.9301L47.7195 46.6219C53.8943 42.728 58 35.8438 58 28H56ZM36 8C47.0457 8 56 16.9543 56 28H58C58 15.8497 48.1503 6 36 6V8ZM16 28C16 16.9543 24.9543 8 36 8V6C23.8497 6 14 15.8497 14 28H16ZM25.3473 44.9301C19.7289 41.3871 16 35.1287 16 28H14C14 35.8438 18.1057 42.728 24.2805 46.6219L25.3473 44.9301ZM26.7952 46.0268C26.3234 45.6723 25.8679 45.3302 25.4292 44.9877L24.1985 46.5643C24.6544 46.9201 25.125 47.2736 25.5941 47.6259L26.7952 46.0268ZM26.8019 46.0318L26.8016 46.0316L25.5877 47.6211L25.588 47.6213L26.8019 46.0318ZM35.4871 58.1737C34.4457 51.741 30.2511 48.6226 26.7955 46.027L25.5944 47.6261C29.0687 50.2358 32.6121 52.9296 33.5129 58.4933L35.4871 58.1737ZM34.5063 57.3335H34.5V59.3335H34.5063V57.3335ZM36.0023 58.491C35.8062 58.491 35.6586 58.4279 35.5756 58.3635C35.4933 58.2996 35.5042 58.2647 35.5052 58.2872L33.5073 58.3798C33.5701 59.7349 34.8586 60.491 36.0023 60.491V58.491ZM36.4994 58.2872C36.5004 58.2647 36.5113 58.2996 36.429 58.3635C36.346 58.4279 36.1984 58.491 36.0023 58.491V60.491C37.146 60.491 38.4344 59.7349 38.4972 58.3798L36.4994 58.2872ZM37.5 57.3335H37.4983V59.3335H37.5V57.3335ZM45.2045 46.027C41.7489 48.6226 37.5543 51.741 36.5129 58.1737L38.4871 58.4933C39.3879 52.9296 42.9313 50.2358 46.4056 47.6261L45.2045 46.027ZM45.2008 46.0297L45.2007 46.0299L46.4094 47.6233L46.4096 47.6231L45.2008 46.0297ZM46.5708 44.9877C46.132 45.3302 45.6765 45.6724 45.2046 46.0269L46.4058 47.626C46.8749 47.2736 47.3455 46.9202 47.8015 46.5643L46.5708 44.9877Z" fill="#4156FF" mask="url(#path-2-inside-1_171_14147)"/>
<path d="M35.9492 26.1016H26.3984V26.9336H30.6172V27.8125H27.5352V28.6211H33.6523V29.4062H27.5469V31.8906H35.0469V31.0469H28.6367V30.1797H34.7539V27.8125H31.7188V26.9336H35.9492V26.1016ZM26.8672 24.8477L27.1836 25.6914C29.0234 25.5566 30.5117 25.0234 31.168 24.1035C31.8242 25.0234 33.3125 25.5566 35.1406 25.6914L35.4805 24.8477C33.4473 24.7363 32.0293 24.1211 31.8066 23.2305H35V22.375H31.7188V21.4492H30.6172V22.375H27.3477V23.2305H30.5234C30.2949 24.1211 28.877 24.7363 26.8672 24.8477ZM38.0178 21.9414H36.928V26.5234H41.8733V21.9414H40.7717V23.3711H38.0178V21.9414ZM37.9827 28.2344H43.6663V29.1836H38.0061V31.8906H45.1311V31H39.0959V30.0039H44.7678V27.3555H37.9827V28.2344ZM38.0178 25.6328V24.2266H40.7717V25.6328H38.0178ZM43.6545 26.8984H44.7678V24.6016H46.2913V23.6992H44.7678V21.4961H43.6545V26.8984Z" fill="#FAFAFA"/>
</svg>
